Coordinates
version=1
nRows=14
nColumns=36
inDegrees=yes

Units are S.I. units (second, meters, Newtons, ...)
If the header above contains a line with 'inDegrees', this indicates whether rotational values are in degrees (yes) or radians (no).

endheader
time	pelvis_tilt	pelvis_list	pelvis_rotation	pelvis_tx	pelvis_ty	pelvis_tz	hip_flexion_r	hip_adduction_r	hip_rotation_r	knee_angle_r	knee_angle_r_beta	ankle_angle_r	subtalar_angle_r	mtp_angle_r	hip_flexion_l	hip_adduction_l	hip_rotation_l	knee_angle_l	knee_angle_l_beta	ankle_angle_l	subtalar_angle_l	mtp_angle_l	lumbar_extension	lumbar_bending	lumbar_rotation	arm_flex_r	arm_add_r	arm_rot_r	elbow_flex_r	pro_sup_r	arm_flex_l	arm_add_l	arm_rot_l	elbow_flex_l	pro_sup_l
     14.01666670	    -43.42438293	     -3.32495619	      2.76019283	      0.84837646	      0.79106623	      0.03597375	     87.31674610	      1.66120683	      5.21239574	     44.80705994	      0.78203072	     -6.93549404	    -34.28422245	     -7.49999987	     80.54643520	      8.58794226	      5.01755968	     38.31085947	      0.66865064	      3.87995073	    -34.37343265	     -7.49999987	     49.19562568	    -12.53727998	     -3.01470857	     27.49209824	     20.73084020	     77.20401717	    117.76479999	    109.57572688	     12.27297123	      9.89532145	     33.19364627	    129.27173461	    105.84914899
     14.03333330	    -43.91036431	     -3.39409258	      2.65492132	      0.84809179	      0.78951176	      0.03686151	     87.40628677	      1.99757426	      5.26776111	     44.84670443	      0.78272265	     -8.06132896	    -34.30902274	     -7.49999987	     80.74466232	      8.57102988	      5.70943619	     37.49771257	      0.65445855	      4.46788256	    -34.36378751	     -7.49999987	     50.08349110	    -12.46124506	     -2.89296171	     27.18050680	     20.80184348	     77.13590754	    117.42995694	    109.42110067	     11.99226735	      9.93233418	     31.81171336	    127.26351044	    105.93855980
     14.05000000	    -43.79905691	     -3.62790658	      2.35031661	      0.84607913	      0.78780601	      0.03870212	     87.28013400	      2.46646225	      4.73347833	     45.23718501	      0.78953782	     -8.18196744	    -34.34438421	     -7.49999987	     80.97355845	      8.26375686	      6.14813326	     38.08249942	      0.66466500	      4.83896624	    -34.33714510	     -7.49999987	     49.99285265	    -11.91099490	     -2.81250287	     27.47339660	     20.74254919	     77.32761316	    117.46381177	    109.41945657	     12.21395875	      9.72993075	     30.85805339	    125.52607497	    106.26987114
     14.06666670	    -43.64665628	     -3.96623716	      1.94046204	      0.84634633	      0.78954859	      0.03887187	     86.87274252	      3.03309931	      3.99579736	     45.30297036	      0.79068599	     -8.52593778	    -34.37784533	     -7.49999987	     81.07620820	      7.75175630	      6.44372119	     38.71919214	      0.67577739	      4.74658832	    -34.34785841	     -7.49999987	     49.81100058	    -11.16745969	     -2.76252717	     27.75743026	     20.72592953	     77.44363857	    117.51927556	    109.42753858	     12.28740984	      9.66683586	     31.05869208	    124.49033853	    106.46604068
     14.08333330	    -42.06204117	     -4.43600267	      1.59745392	      0.84049526	      0.78629764	      0.03959502	     85.70673025	      3.68357902	      3.12455527	     46.40776252	      0.80996825	     -7.13454262	    -34.39788120	     -7.49999987	     80.66092368	      7.22796862	      6.87454873	     40.86911057	      0.71330054	      5.48461728	    -34.32049261	     -7.49999987	     46.78013465	    -10.24539041	     -2.81797582	     29.07045329	     20.89239317	     78.04486818	    117.74891173	    109.40322833	     12.67116621	      9.92886674	     30.89924779	    127.09213203	    106.49532985
     14.10000000	    -41.51657920	     -4.86420098	      1.52107524	      0.84205813	      0.78915990	      0.04135467	     85.17364258	      3.96467397	      2.50885967	     46.79720289	      0.81676527	     -6.80309327	    -34.42779952	     -7.49999987	     80.58209556	      6.78865279	      6.86643908	     41.58986038	      0.72588000	      4.92124909	    -34.34230635	     -7.49999987	     45.61935277	     -9.63184278	     -2.49390278	     29.66947491	     20.67555823	     77.83032314	    117.61499581	    109.54833357	     12.67608181	     10.58254576	     29.37692101	    126.50669495	    106.48654289
     14.11666670	    -41.22313627	     -5.19273230	      1.00038334	      0.84501318	      0.79163497	      0.04137445	     84.56071176	      4.48418972	      1.87136609	     46.89976124	      0.81855525	     -6.84661635	    -34.45413405	     -7.49999987	     80.59139663	      6.18814525	      7.16955118	     42.24995652	      0.73740085	      4.74924115	    -34.33369874	     -7.49999987	     44.98790941	     -8.72894557	     -2.56832244	     29.77550098	     20.64009356	     77.86718614	    117.61543312	    109.37949979	     12.75859053	     10.99125237	     30.90561730	    126.71762477	    106.79858799
     14.13333330	    -40.65309146	     -5.38086684	      0.74565830	      0.84521459	      0.79284498	      0.04238362	     83.78513801	      4.78689337	      1.48113142	     47.41728478	      0.82758774	     -6.69374610	    -34.45223782	     -7.49999987	     80.26995723	      5.82851421	      7.32656468	     42.93188715	      0.74930278	      4.99930357	    -34.31516960	     -7.49999987	     44.07497248	     -8.45375405	     -2.65617126	     30.24328339	     20.82257565	     78.16055421	    117.50058360	    109.50750284	     12.94384433	     11.07318387	     34.38163203	    129.37395984	    107.13214265
     14.15000000	    -40.69752411	     -5.59199505	      0.08212069	      0.84668520	      0.79235285	      0.04346490	     83.43866017	      5.36296059	      0.92871077	     47.24673578	      0.82461110	     -6.29655633	    -34.45875931	     -7.49999987	     80.47114900	      5.20816293	      7.80424152	     43.52129681	      0.75958992	      5.46981461	    -34.30457142	     -7.49999987	     44.11223634	     -7.65531325	     -3.05183663	     30.36495242	     21.00580358	     78.48144123	    117.41219298	    109.45351345	     13.24575499	     11.22938639	     37.50400907	    130.75544194	    107.52068010
     14.16666670	    -40.67006963	     -6.10269131	     -0.38958005	      0.84004423	      0.78982089	      0.04281773	     83.15785062	      5.89011087	      0.10658507	     46.95016195	      0.81943491	     -6.52989832	    -34.46468894	     -7.49999987	     80.89671800	      4.62921614	      8.05170383	     44.37862939	      0.77455320	      5.68777473	    -34.29184593	     -7.49999987	     43.56325967	     -6.67198537	     -3.63845173	     30.90034022	     21.06996200	     78.90779878	    117.46278298	    108.12521597	     13.43072625	     11.24374548	     38.96885284	    133.69788416	    106.51377630
     14.18333330	    -40.39420637	     -6.50813942	     -0.71598864	      0.84294066	      0.78998159	      0.04437827	     82.52286591	      6.31697093	     -0.70059553	     46.63392356	      0.81391551	     -6.75966041	    -34.47517696	     -7.49999987	     80.85736882	      4.05995298	      8.24492930	     45.05247165	      0.78631397	      5.61859305	    -34.28863201	     -7.49999987	     42.79518226	     -5.92449676	     -4.34212643	     31.10098120	     21.20714197	     79.51894645	    117.74088005	    109.31500181	     14.28793124	     11.24203412	     40.79121615	    134.88196152	    108.42414452
     14.20000000	    -40.60080318	     -6.55874929	     -1.18297516	      0.83582600	      0.78773253	      0.04574719	     82.59495806	      6.59748166	     -1.46840483	     46.07690792	      0.80419375	     -7.31865774	    -34.49348364	     -7.49999987	     81.46547385	      3.74916996	      8.42738789	     45.44004822	      0.79307845	      5.85663514	    -34.30370078	     -7.49999987	     42.34282232	     -5.23526309	     -5.14371278	     31.77385555	     21.63415139	     80.49151064	    118.20715406	    109.38313967	     15.40017763	     11.35147997	     43.40405463	    136.38021830	    108.59491240
     14.21666670	    -41.15070435	     -6.97212664	     -1.21970636	      0.84223654	      0.78641768	      0.04660200	     82.89229950	      6.75086742	     -1.89432031	     45.72124090	      0.79798619	     -7.60532288	    -34.50797570	     -7.49999987	     82.24407749	      3.58225564	      8.61324859	     45.82406328	      0.79978078	      5.98303247	    -34.32007472	     -7.49999987	     43.22943633	     -4.65770942	     -5.46567608	     31.75935735	     21.45775117	     80.29069886	    118.02251816	    106.83198187	     15.62089206	     11.77438686	     43.31307195	    137.21232193	    106.36404423
     14.23333330	    -41.30944764	     -6.75962560	     -0.96902655	      0.84343376	      0.78724762	      0.04691378	     82.77718301	      6.42136708	     -2.03653068	     45.85952725	      0.80039974	     -7.41908796	    -34.50418320	     -7.49999987	     82.22914586	      3.83790830	      8.44031637	     45.73406747	      0.79821006	      6.47847350	    -34.29533688	     -7.49999987	     43.52569796	     -5.05850953	     -5.30477445	     31.60257053	     21.37838443	     80.71446198	    118.09308508	    109.14294933	     16.04800444	     11.68724865	     47.57572669	    139.47957744	    109.36302032
